<?xml version="1.0" encoding="iso-8859-1"?>
<!-- Generator: Adobe Illustrator 19.0.0, SVG Export Plug-In . SVG Version: 6.00 Build 0)  -->
<svg version="1.1" id="Capa_1" xmlns="http://www.w3.org/2000/svg" xmlns:xlink="http://www.w3.org/1999/xlink" x="0px" y="0px"
	 viewBox="0 0 512 512" style="enable-background:new 0 0 512 512;" xml:space="preserve">
<g>
	<circle style="fill:#2980BA;" cx="256" cy="256" r="256"/>
	<path style="fill:#E64C3C;" d="M476.69,300.138v158.897c-0.029,9.739-7.916,17.627-17.655,17.655H52.966
		c-9.739-0.029-17.627-7.916-17.655-17.655V300.138h194.207v44.138c0.029,9.739,7.916,17.627,17.655,17.655h17.655
		c9.739-0.029,17.627-7.916,17.655-17.655v-44.138H476.69z"/>
	<path style="fill:#C03A2B;" d="M459.034,44.138V256h-35.31V70.621H88.276V256h-35.31V44.138c0.015-4.869,3.958-8.813,8.828-8.828
		h388.414C455.076,35.325,459.02,39.269,459.034,44.138z"/>
	<path style="fill:#464F5D;" d="M423.724,71.503V256H298.637l-17.655-17.655l38.047-38.047c3.017-2.864,7.585-3.335,11.123-1.148
		c10.358,5.882,23.37,4.11,31.779-4.326l18.714-18.714c10.328-10.339,10.328-27.09,0-37.429l-18.714,18.714
		c-6.899,6.899-18.083,6.899-24.982,0c-6.899-6.899-6.899-18.083,0-24.982l18.715-18.714c-10.339-10.329-27.09-10.329-37.429,0
		l-18.714,18.714c-8.436,8.409-10.207,21.421-4.326,31.779c2.188,3.538,1.716,8.106-1.148,11.123L256,213.363l-38.047-38.047
		c-2.864-3.017-3.335-7.585-1.148-11.123c5.882-10.358,4.111-23.37-4.326-31.779l-18.714-18.714
		c-10.339-10.329-27.09-10.329-37.429,0l18.714,18.714c6.899,6.899,6.899,18.083,0,24.982c-6.899,6.899-18.083,6.899-24.982,0
		l-18.714-18.714c-10.328,10.339-10.328,27.09,0,37.429l18.714,18.714c8.409,8.436,21.421,10.207,31.779,4.326
		c3.538-2.188,8.106-1.717,11.123,1.148l38.047,38.047L213.363,256H88.276V71.503c0.253-0.364,0.585-0.666,0.971-0.883h333.506
		C423.139,70.838,423.471,71.14,423.724,71.503z"/>
	<path style="fill:#E6E7E8;" d="M256,213.363l-24.982,24.982l-38.047-38.047c-3.017-2.864-7.585-3.335-11.123-1.148
		c-10.358,5.882-23.37,4.11-31.779-4.326l-18.714-18.714c-10.328-10.339-10.328-27.09,0-37.429l18.714,18.714
		c6.899,6.899,18.083,6.899,24.982,0c6.899-6.899,6.899-18.083,0-24.982l-18.714-18.714c10.339-10.329,27.09-10.329,37.429,0
		l18.714,18.714c8.436,8.409,10.207,21.421,4.326,31.779c-2.188,3.538-1.716,8.106,1.148,11.123L256,213.363z"/>
	<path style="fill:#95A5A5;" d="M380.646,176.11l-18.714,18.714c-8.409,8.436-21.421,10.207-31.779,4.326
		c-3.538-2.188-8.106-1.717-11.123,1.148L263.327,256h-49.964l80.684-80.684c2.864-3.017,3.335-7.585,1.148-11.123
		c-5.882-10.358-4.111-23.37,4.326-31.779l18.714-18.714c10.339-10.329,27.09-10.329,37.429,0l-18.715,18.714
		c-6.899,6.899-6.899,18.083,0,24.982c6.899,6.899,18.083,6.899,24.982,0l18.714-18.714
		C390.973,149.02,390.973,165.771,380.646,176.11z"/>
	<path style="fill:#BDC3C7;" d="M282.483,300.138v44.138c-0.029,9.739-7.916,17.627-17.655,17.655h-17.655
		c-9.739-0.029-17.627-7.916-17.655-17.655v-44.138H282.483z"/>
	<polygon style="fill:#E6E7E8;" points="298.637,256 263.327,256 280.982,238.345 	"/>
	<rect x="35.31" y="256" style="fill:#FF5364;" width="441.379" height="44.138"/>
</g>
<g>
</g>
<g>
</g>
<g>
</g>
<g>
</g>
<g>
</g>
<g>
</g>
<g>
</g>
<g>
</g>
<g>
</g>
<g>
</g>
<g>
</g>
<g>
</g>
<g>
</g>
<g>
</g>
<g>
</g>
</svg>
